PathFileType	4	(X/Y/Z)	Run_200 02
DataRate	CameraRate	NumFrames	NumMarkers	Units	OrigDataRate	OrigDataStartFrame	OrigNumFrames
120	120	4	42	mm	120	1	128
Frame#	Time	LASI			RASI			LPSI			RPSI			RTH1			RTH2			RTH3			LTH1			LTH2			LTH3			RTB1			RTB2			RTB3			LTB1			LTB2			LTB3			RCAL			RTOE			RMT5			LCAL			LTOE			LMT5			LACR			RACR			CLAV			C7			RUA1			RUA2			RUA3			RLEL			RMEL			LUA1			LUA2			LUA3			LLEL			LMEL			RFAsuperior			RFAradius			RFAulna			LFAsuperior			LFAradius			LFAulna			
		X1	Y1	Z1	X2	Y2	Z2	X3	Y3	Z3	X4	Y4	Z4	X5	Y5	Z5	X6	Y6	Z6	X7	Y7	Z7	X8	Y8	Z8	X9	Y9	Z9	X10	Y10	Z10	X11	Y11	Z11	X12	Y12	Z12	X13	Y13	Z13	X14	Y14	Z14	X15	Y15	Z15	X16	Y16	Z16	X17	Y17	Z17	X18	Y18	Z18	X19	Y19	Z19	X20	Y20	Z20	X21	Y21	Z21	X22	Y22	Z22	X23	Y23	Z23	X24	Y24	Z24	X25	Y25	Z25	X26	Y26	Z26	X27	Y27	Z27	X28	Y28	Z28	X29	Y29	Z29	X30	Y30	Z30	X31	Y31	Z31	X32	Y32	Z32	X33	Y33	Z33	X34	Y34	Z34	X35	Y35	Z35	X36	Y36	Z36	X37	Y37	Z37	X38	Y38	Z38	X39	Y39	Z39	X40	Y40	Z40	X41	Y41	Z41	X42	Y42	Z42	

1	0.133333	903.747088	1090.141291	-456.175812	900.609232	1100.971946	-198.248825	725.971957	1141.992778	-364.849802	724.104165	1136.274945	-281.14738	856.9175729999999	927.509662	-140.960245	938.482469	832.09577	-150.027794	901.190066	710.325758	-195.256178	793.995885	883.83354	-500.164014	813.8593499999999	751.351571	-483.962189	715.923036	661.069748	-465.741484	1041.917082	438.209665	-282.264943	1027.464398	365.867189	-216.45154	1056.93189	273.360391	-291.788618	647.172895	429.844321	-404.130785	562.6252009999999	389.202376	-451.785851	496.546201	295.450959	-386.068537	975.332055	96.64333600000001	-318.347655	1205.118073	136.683585	-330.342993	1148.769599	78.402479	-246.870904	341.690577	295.038345	-374.657457	438.541414	85.848866	-340.420139	376.518608	121.285397	-429.272987	942.649944	1574.843057	-496.569516	883.880433	1588.948382	-170.031217	955.943007	1520.564759	-286.925001	842.435127	1606.159589	-345.362199	806.342209	1531.789324	-94.193681	761.263908	1449.734999	-97.746402	691.901843	1489.320016	-100.886599	589.580755	1389.3907	-64.88240500000001	584.16887	1389.514117	-147.005623	926.558188	1488.021311	-573.771235	929.009912	1415.524214	-565.131323	835.214537	1408.158229	-585.85162	831.644202	1240.911836	-633.633246	767.31963	1239.644092	-570.521578	657.076363	1305.48866	-53.266779	773.066238	1179.936322	-121.20571	724.870397	1150.661706	-74.476339	917.025453	1249.179871	-584.40228	1014.183781	1294.910598	-437.106366	1032.859924	1224.794752	-453.006513	
2	0.141667	904.989605	1086.88156	-455.601756	900.5141620000001	1097.06648	-197.10431	726.529648	1136.946993	-365.623819	724.286354	1130.60415	-282.202501	856.011559	922.967686	-141.589091	938.772162	828.375498	-151.793185	900.692803	706.01026	-196.225597	798.560784	878.527635	-499.618207	820.384739	746.306685	-482.764263	723.955233	654.715496	-465.935191	1039.011397	432.690669	-283.563774	1023.896459	360.579954	-217.870128	1051.250759	267.706251	-293.187841	652.519873	425.660353	-404.010278	566.90949	387.961393	-452.108188	496.331457	297.385965	-386.660385	966.456622	95.698125	-320.525361	1196.537698	126.296561	-333.10154	1138.4242	71.109301	-248.62946	341.757574	303.034642	-376.048573	429.71385	89.900193	-341.833265	369.624526	127.976354	-430.814115	942.52466	1570.392371	-496.033266	885.227846	1584.573455	-168.748162	956.591264	1516.120906	-286.130366	842.771228	1601.853505	-344.366503	808.043198	1526.633727	-92.509232	763.630929	1444.025898	-95.94456	693.957088	1482.965072	-98.390531	592.706515	1382.438936	-61.584714	586.726194	1382.285448	-143.637193	925.406345	1483.746199	-573.213363	928.090461	1411.385272	-564.740338	833.9562979999999	1404.241117	-584.548847	830.030075	1237.180289	-632.972939	766.014729	1235.980925	-569.781957	661.167186	1299.264661	-50.296571	777.907682	1174.88834	-118.744583	730.5986810000001	1145.08948	-71.50344699999999	915.649678	1244.483729	-583.98694	1013.661539	1288.658115	-436.687031	1031.423305	1218.349176	-452.699929	
3	0.15	906.113208	1082.880183	-455.236695	900.439754	1092.650076	-196.132275	726.991579	1131.114109	-366.604759	724.408238	1124.344826	-283.432928	855.774304	917.878171	-142.459229	939.329391	824.2803699999999	-154.208377	900.32137	701.102527	-197.179458	803.182916	872.503744	-499.054282	827.1466820000001	740.521114	-481.698724	732.491807	647.5472559999999	-466.083259	1035.679147	426.600128	-285.07648	1019.619141	354.595025	-219.78427	1044.299209	261.228016	-295.126781	658.44424	420.982455	-403.851534	571.777844	386.455727	-452.494587	496.721221	299.387377	-387.263819	955.541668	95.69100299999999	-323.066725	1186.358184	113.3882	-335.218635	1125.506555	63.351942	-249.665097	341.988288	310.790529	-377.117776	422.555011	94.480368	-343.916477	364.242147	135.171786	-432.911377	942.43011	1565.146141	-495.499246	886.655997	1579.364066	-167.349256	957.313614	1510.968158	-285.197297	842.970222	1596.944316	-343.273899	809.9865129999999	1520.399089	-90.680982	766.261592	1437.363624	-93.941124	696.2970780000001	1475.579479	-95.408244	596.270425	1374.360199	-57.730004	589.546379	1373.980325	-139.705652	924.143405	1478.623665	-572.723107	927.031878	1406.346104	-564.368656	832.461624	1399.469606	-583.1718980000001	828.07232	1232.717783	-632.2435819999999	764.450003	1231.62181	-568.843134	665.799535	1292.036771	-46.909133	783.433622	1169.109925	-116.078865	737.074792	1138.652926	-68.386213	914.010754	1238.943342	-583.617198	1013.093559	1281.342012	-436.450056	1029.930065	1211.014016	-452.835692	
4	0.158333	907.135632	1078.022377	-455.078924	900.241805	1087.798875	-195.558113	727.277641	1124.654003	-367.685436	724.239471	1117.874849	-284.683234	856.224206	912.571113	-143.133373	939.719415	819.998299	-156.307923	900.178418	696.136929	-198.068243	807.885148	865.723473	-498.426604	834.047586	734.040225	-480.813404	741.344541	639.671651	-466.139215	1032.536167	420.77195	-287.020719	1015.295923	348.668747	-222.423	1036.610702	254.780254	-297.952536	664.9046049999999	415.917238	-403.865749	577.1291210000001	384.887697	-452.971882	497.88649	301.449256	-387.951298	942.9173929999999	96.230431	-325.518531	1174.850887	100.198427	-337.027309	1110.969276	56.768964	-250.106408	342.650311	318.441793	-377.779368	417.475366	99.622229	-346.934065	360.616021	143.002075	-435.681303	942.36143	1559.186606	-494.992834	888.054161	1573.279034	-166.002812	958.1597870000001	1505.098018	-284.216964	842.959481	1591.512029	-342.093589	812.166048	1513.134245	-88.746487	769.157467	1429.805424	-91.70489499999999	698.90039	1467.226318	-91.958352	600.278648	1365.183746	-53.334072	592.65876	1364.624372	-135.239285	922.907877	1472.741305	-572.3284190000001	925.853256	1400.439734	-563.98974	830.781314	1393.914863	-581.775576	825.795421	1227.532834	-631.464519	762.4992099999999	1226.597232	-567.717641	670.993669	1283.843563	-43.122753	789.622163	1162.615099	-113.3116	744.305242	1131.424634	-65.15561599999999	912.090769	1232.562529	-583.275925	1012.437494	1272.973178	-436.360417	1028.36042	1202.832571	-453.465771	
